<?xml version="1.0" standalone="no"?>
<!DOCTYPE svg PUBLIC "-//W3C//DTD SVG 20010904//EN"
 "http://www.w3.org/TR/2001/REC-SVG-20010904/DTD/svg10.dtd">
<svg version="1.0" xmlns="http://www.w3.org/2000/svg"
 width="700.000000pt" height="700.000000pt" viewBox="0 0 700.000000 700.000000"
 preserveAspectRatio="xMidYMid meet">
<metadata>
</metadata>
<g transform="translate(0.000000,700.000000) scale(0.100000,-0.100000)"
fill="#000000" stroke="none">
<path d="M3730 6843 c-25 -14 -52 -30 -60 -37 -22 -19 -132 -46 -250 -62 -19
-3 -57 -11 -85 -19 -27 -8 -77 -21 -110 -30 -33 -9 -68 -20 -77 -26 -10 -5
-27 -9 -38 -9 -17 0 -66 -18 -112 -41 -10 -5 -24 -9 -32 -9 -8 0 -27 -6 -43
-14 -15 -8 -55 -27 -88 -41 -33 -15 -67 -31 -75 -36 -8 -5 -33 -18 -55 -29
-102 -53 -187 -113 -264 -184 -147 -136 -296 -294 -380 -402 -23 -29 -35 -65
-42 -124 -4 -36 -15 -110 -24 -165 -9 -55 -20 -145 -25 -200 -6 -55 -14 -125
-19 -155 -5 -30 -10 -172 -10 -315 -1 -151 -5 -265 -11 -271 -5 -5 -11 -56
-13 -114 -2 -58 -8 -114 -14 -125 -10 -19 -29 -62 -51 -115 -6 -14 -13 -37
-16 -52 -4 -16 -11 -28 -16 -28 -6 0 -10 -12 -10 -27 0 -16 -7 -37 -15 -47 -8
-11 -15 -30 -15 -42 0 -13 -5 -26 -10 -29 -6 -3 -10 -18 -10 -33 0 -15 -7 -36
-15 -46 -8 -11 -15 -33 -15 -48 0 -16 -4 -36 -10 -46 -11 -21 -28 -111 -40
-212 -5 -41 -12 -88 -15 -105 -3 -16 -8 -40 -11 -52 -3 -16 -25 -32 -82 -58
-42 -20 -84 -40 -92 -46 -8 -5 -22 -12 -30 -15 -8 -3 -26 -11 -40 -16 -14 -6
-38 -16 -55 -23 -16 -7 -55 -25 -85 -39 -30 -14 -59 -26 -63 -26 -4 0 -30 -11
-59 -25 -28 -14 -57 -25 -64 -25 -7 0 -25 -6 -41 -14 -15 -8 -46 -22 -68 -31
-22 -9 -48 -20 -57 -25 -10 -6 -26 -10 -37 -10 -10 0 -24 -7 -31 -15 -7 -8
-25 -15 -41 -15 -15 0 -31 -4 -34 -10 -3 -6 -16 -10 -28 -10 -12 0 -31 -7 -41
-15 -11 -8 -29 -15 -40 -15 -12 0 -30 -7 -40 -15 -11 -8 -30 -15 -42 -15 -13
0 -26 -4 -29 -10 -3 -5 -17 -10 -29 -10 -13 0 -29 -7 -36 -15 -7 -8 -23 -15
-36 -15 -12 0 -26 -4 -29 -10 -3 -5 -15 -10 -27 -10 -11 0 -32 -6 -46 -14 -36
-18 -91 -37 -124 -43 -15 -3 -35 -14 -44 -24 -17 -18 -16 -21 4 -60 12 -23 22
-47 22 -54 0 -7 7 -18 15 -25 8 -7 15 -19 15 -26 0 -8 11 -32 25 -54 14 -22
25 -46 25 -54 0 -7 7 -19 15 -26 8 -7 15 -21 15 -31 0 -11 5 -19 10 -19 6 0
10 -8 10 -19 0 -10 7 -24 15 -31 8 -7 15 -21 15 -30 0 -10 4 -20 8 -22 5 -1
20 -25 33 -53 31 -60 64 -119 89 -160 11 -16 29 -48 40 -70 11 -22 29 -53 40
-70 10 -16 26 -44 35 -62 9 -18 23 -37 31 -44 8 -6 14 -17 14 -23 0 -6 14 -27
30 -46 25 -30 31 -33 47 -23 10 7 32 20 50 29 18 9 37 22 44 30 6 8 15 14 20
14 5 0 35 17 66 37 76 49 134 82 156 90 9 3 17 9 17 13 0 4 11 11 25 14 14 4
25 11 25 16 0 6 9 10 19 10 11 0 22 4 25 9 6 9 36 26 166 93 41 21 82 43 90
47 23 13 83 43 105 54 11 6 27 14 35 19 8 4 36 18 63 30 26 12 47 25 47 30 0
4 6 8 14 8 17 0 80 32 84 43 2 4 12 7 22 7 9 0 23 7 30 15 7 8 19 15 27 15 12
0 14 -7 9 -32 -7 -33 -22 -189 -35 -373 -4 -55 -12 -110 -19 -122 -7 -12 -12
-59 -12 -108 0 -47 -4 -94 -9 -103 -11 -20 -21 -150 -14 -169 7 -18 101 -17
149 2 66 27 87 36 139 62 93 47 125 65 131 74 23 38 35 -62 12 -104 -6 -12
-15 -53 -20 -92 -18 -147 -26 -191 -39 -222 -11 -28 -11 -39 4 -80 9 -26 17
-58 17 -70 0 -12 5 -25 10 -28 6 -3 10 -15 10 -27 0 -17 11 -43 41 -98 5 -8
16 -31 26 -50 25 -51 115 -169 159 -211 22 -20 63 -53 92 -73 28 -21 52 -41
52 -45 0 -3 -8 -12 -17 -19 -183 -126 -332 -260 -359 -322 -6 -14 -19 -42 -28
-63 -22 -51 -21 -130 2 -148 59 -47 143 -61 221 -35 27 9 61 16 75 16 13 0 37
6 53 14 15 8 39 19 53 24 70 27 243 120 248 133 2 5 7 9 12 9 23 0 217 149
317 243 53 51 105 77 155 77 15 0 30 5 33 10 3 6 22 10 41 10 19 0 51 7 71 15
19 8 53 15 74 15 21 0 64 7 96 15 77 20 366 20 488 0 50 -8 123 -15 164 -15
l74 0 90 -91 c87 -88 225 -199 246 -199 6 0 11 -4 11 -8 0 -5 19 -19 43 -31
23 -12 65 -36 92 -51 28 -16 57 -32 65 -36 8 -3 31 -13 50 -21 19 -7 43 -18
52 -23 10 -6 28 -10 42 -10 13 0 29 -7 36 -15 7 -8 29 -15 49 -15 20 0 41 -4
46 -9 9 -9 102 -15 187 -12 33 1 41 7 63 41 36 56 33 99 -11 171 -38 61 -131
158 -199 207 -23 16 -54 41 -69 56 -16 14 -33 26 -39 26 -5 0 -26 13 -46 29
-20 15 -42 30 -50 32 -8 3 9 23 45 53 33 26 72 63 87 82 35 42 97 134 97 143
0 4 11 31 25 59 14 29 25 60 25 69 0 10 7 27 15 37 8 11 15 31 15 45 0 14 7
46 16 71 17 48 13 155 -6 174 -6 6 -10 23 -10 39 0 15 -5 37 -11 48 -6 11 -14
41 -19 67 -22 115 -32 158 -41 167 -5 5 -9 30 -9 55 0 25 -5 51 -10 56 -6 6
-13 35 -17 65 -3 30 -9 59 -13 64 -4 6 -10 34 -13 64 -4 30 -11 59 -17 65 -5
5 -10 30 -10 54 0 24 -5 53 -11 64 -11 20 -20 69 -37 198 -4 30 -12 62 -17 70
-5 8 -13 42 -17 75 -12 106 -28 188 -38 200 -5 7 -7 15 -3 18 3 4 88 7 188 7
100 0 217 5 261 10 43 6 135 15 204 20 169 13 259 25 293 39 16 6 41 11 57 11
16 0 32 5 35 10 3 6 15 10 26 10 30 0 105 38 176 87 17 13 36 23 42 23 22 0
246 235 269 282 13 26 27 50 33 53 5 4 9 19 9 34 0 15 6 33 13 39 8 9 12 50
12 132 0 82 -4 123 -12 131 -7 7 -13 23 -13 35 0 12 -7 27 -15 34 -8 7 -15 17
-15 23 0 6 -17 31 -38 56 -20 25 -51 64 -67 86 -16 22 -31 42 -34 45 -4 3 -32
37 -63 75 -69 85 -284 296 -433 424 -61 52 -112 96 -114 98 -10 7 -22 110 -31
253 -5 86 -14 168 -19 183 -6 16 -11 79 -11 140 -1 62 -6 132 -11 157 -10 42
-21 192 -35 461 -6 109 -8 117 -35 148 -16 19 -29 37 -29 41 0 11 -162 167
-210 201 -25 18 -47 35 -50 39 -3 3 -21 16 -40 27 -19 12 -44 30 -56 40 -23
20 -52 40 -74 50 -8 4 -44 27 -80 51 -35 24 -74 48 -85 53 -11 5 -42 23 -70
39 -27 17 -59 35 -70 40 -11 6 -27 14 -35 19 -8 5 -64 32 -125 61 -60 28 -123
57 -138 65 -16 8 -34 15 -42 15 -7 0 -26 7 -41 15 -16 8 -37 15 -46 15 -9 0
-20 5 -23 10 -3 6 -18 10 -33 10 -15 0 -36 7 -46 15 -11 8 -34 15 -52 15 -18
0 -36 5 -39 10 -3 6 -19 10 -34 10 -16 0 -46 6 -67 13 -22 8 -81 17 -133 21
-86 5 -99 9 -145 41 -44 30 -59 35 -106 34 -38 -1 -69 -9 -100 -26z m1733
-737 c48 -41 103 -94 123 -118 20 -23 40 -45 44 -48 4 -3 19 -23 34 -44 24
-36 26 -47 26 -147 0 -60 7 -150 16 -199 8 -50 13 -98 10 -108 -3 -9 -1 -55 5
-102 5 -47 13 -155 18 -240 5 -85 14 -168 20 -183 12 -30 16 -277 4 -277 -4 0
-28 18 -54 40 -26 22 -50 40 -54 40 -3 0 -29 19 -57 43 -66 55 -99 126 -108
232 -4 44 -13 139 -19 210 -7 72 -16 154 -21 184 -6 30 -10 91 -10 136 0 45
-5 107 -11 139 -6 32 -14 97 -19 145 -19 190 -31 277 -40 299 -12 27 -13 72
-2 72 4 0 46 -33 95 -74z m-2769 -360 c31 -13 76 -59 76 -77 0 -16 -264 -269
-281 -269 -10 0 -120 -52 -174 -83 -71 -39 -138 -90 -197 -145 l-58 -55 0 103
c0 96 9 153 31 190 5 8 13 24 18 35 14 30 51 67 98 101 144 100 195 134 203
134 6 0 18 4 28 9 44 22 94 41 110 41 10 0 22 4 28 9 5 5 23 11 39 14 17 2 34
5 38 6 4 0 22 -5 41 -13z m229 -533 c-7 -2 -19 -2 -25 0 -7 3 -2 5 12 5 14 0
19 -2 13 -5z m-128 -23 c4 -6 -7 -10 -25 -10 -18 0 -29 4 -25 10 3 6 15 10 25
10 10 0 22 -4 25 -10z m390 -1 c10 -15 -1 -23 -20 -15 -9 3 -13 10 -10 16 8
13 22 13 30 -1z m-475 -29 c-20 -13 -47 -13 -55 0 -4 6 9 10 32 10 28 0 34 -3
23 -10z m-84 -22 c3 -3 -11 -8 -30 -10 -23 -3 -36 0 -36 8 0 11 55 13 66 2z
m574 -18 c0 -5 -4 -10 -10 -10 -5 0 -10 5 -10 10 0 6 5 10 10 10 6 0 10 -4 10
-10z m-652 -11 c-2 -6 -7 -10 -11 -10 -4 1 -16 1 -27 1 -11 0 -20 5 -20 10 0
6 14 10 31 10 17 0 29 -5 27 -11z m-78 -29 c0 -5 -4 -10 -9 -10 -6 0 -13 5
-16 10 -3 6 1 10 9 10 9 0 16 -4 16 -10z m250 -20 c0 -10 -4 -22 -10 -25 -6
-4 -10 7 -10 25 0 18 4 29 10 25 6 -3 10 -15 10 -25z m87 8 c-3 -8 -6 -5 -6 6
-1 11 2 17 5 13 3 -3 4 -12 1 -19z m-387 -8 c0 -6 -8 -13 -17 -17 -10 -3 -30
-17 -45 -31 -14 -13 -31 -21 -37 -18 -19 12 -12 22 24 36 20 8 41 20 47 27 13
16 28 17 28 3z m550 0 c0 -5 -2 -10 -4 -10 -3 0 -8 5 -11 10 -3 6 -1 10 4 10
6 0 11 -4 11 -10z m1532 -22 c-7 -7 -12 -8 -12 -2 0 6 3 14 7 17 3 4 9 5 12 2
2 -3 -1 -11 -7 -17z m-1702 -25 c0 -18 -17 -16 -24 3 -8 22 4 40 15 23 5 -8 9
-20 9 -26z m330 13 c0 -3 -4 -8 -10 -11 -5 -3 -10 -1 -10 4 0 6 5 11 10 11 6
0 10 -2 10 -4z m1350 -5 c0 -5 -7 -14 -15 -21 -8 -7 -15 -18 -15 -26 0 -30
-18 -21 -22 11 -3 26 -1 34 9 31 7 -3 15 -1 18 4 8 12 25 13 25 1z m-1789 -64
c-16 -16 -22 -4 -14 34 l6 34 10 -29 c6 -19 6 -31 -2 -39z m399 43 c0 -5 -17
-10 -37 -10 -28 0 -34 3 -23 10 20 13 60 13 60 0z m170 0 c0 -5 -11 -10 -25
-10 -14 0 -25 5 -25 10 0 6 11 10 25 10 14 0 25 -4 25 -10z m1396 -8 c5 -4 16
-21 23 -39 11 -26 10 -35 -3 -55 -9 -14 -28 -31 -42 -38 -22 -12 -29 -12 -52
2 -40 24 -55 60 -40 95 16 37 26 43 68 43 19 0 40 -4 46 -8z m-2366 -7 c0 -10
-34 -42 -65 -60 -27 -16 -26 -14 10 23 37 38 55 50 55 37z m1016 -22 c-8 -8
-36 5 -36 17 0 7 6 7 21 0 11 -7 18 -14 15 -17z m-322 -22 c-39 -39 -39 -39
-58 -19 -10 10 -15 22 -11 26 4 4 10 1 12 -5 7 -19 19 -16 49 12 43 40 50 29
8 -14z m-214 22 c0 -5 -5 -15 -10 -23 -8 -12 -10 -11 -10 8 0 12 5 22 10 22 6
0 10 -3 10 -7z m-365 -23 c3 -5 -1 -10 -10 -10 -9 0 -13 5 -10 10 3 6 8 10 10
10 2 0 7 -4 10 -10z m2018 -37 c-3 -7 -9 -10 -14 -7 -11 6 -12 38 -2 48 9 9
22 -25 16 -41z m-1753 7 c0 -16 -4 -30 -10 -30 -11 0 -14 43 -3 53 11 12 13 8
13 -23z m2807 -28 c8 -18 13 -40 11 -49 -3 -13 -6 -13 -25 3 -19 16 -22 25
-16 64 3 25 8 38 11 30 2 -8 10 -30 19 -48z m-2107 33 c0 -8 -4 -15 -10 -15
-5 0 -10 7 -10 15 0 8 5 15 10 15 6 0 10 -7 10 -15z m-630 -35 c0 -16 -4 -30
-10 -30 -11 0 -14 43 -3 53 11 12 13 8 13 -23z m190 6 c0 -8 -4 -17 -9 -20
-10 -7 -23 19 -14 28 11 11 23 6 23 -8z m586 -13 c-10 -10 -19 5 -10 18 6 11
8 11 12 0 2 -7 1 -15 -2 -18z m1430 -14 c1 -48 -7 -89 -17 -89 -5 0 -9 30 -9
66 0 48 3 65 13 62 6 -3 12 -20 13 -39z m-1691 1 c20 -38 19 -52 -6 -84 -15
-18 -30 -26 -52 -26 -61 1 -88 45 -63 104 14 34 18 36 60 36 40 0 47 -3 61
-30z m-1085 6 c0 -15 -18 -31 -26 -23 -7 7 7 37 17 37 5 0 9 -6 9 -14z m330 5
c0 -6 -4 -13 -10 -16 -5 -3 -10 1 -10 9 0 9 5 16 10 16 6 0 10 -4 10 -9z m890
-7 c0 -8 -4 -12 -10 -9 -5 3 -10 10 -10 16 0 5 5 9 10 9 6 0 10 -7 10 -16z
m-750 -34 c0 -11 -4 -20 -10 -20 -5 0 -10 9 -10 20 0 11 5 20 10 20 6 0 10 -9
10 -20z m79 -20 c8 -25 7 -30 -5 -30 -17 0 -28 24 -20 45 8 22 13 19 25 -15z
m178 -32 c-2 -13 -4 -3 -4 22 0 25 2 35 4 23 2 -13 2 -33 0 -45z m523 -28 c0
-49 -4 -90 -8 -90 -5 0 -14 -10 -20 -22 l-11 -23 0 23 c-1 12 4 22 9 22 6 0
10 37 10 90 0 53 4 90 10 90 6 0 10 -37 10 -90z m1627 58 c-3 -8 -6 -5 -6 6
-1 11 2 17 5 13 3 -3 4 -12 1 -19z m-2887 -30 c0 -5 -9 -8 -20 -8 -13 0 -20 7
-20 20 0 18 2 19 20 8 11 -7 20 -16 20 -20z m1322 20 c-9 -9 -15 -9 -24 0 -9
9 -7 12 12 12 19 0 21 -3 12 -12z m935 -45 c-3 -10 -5 -2 -5 17 0 19 2 27 5
18 2 -10 2 -26 0 -35z m-1797 30 c0 -14 -19 -38 -25 -32 -8 8 5 39 16 39 5 0
9 -3 9 -7z m2530 -3 c0 -5 -4 -10 -10 -10 -5 0 -10 5 -10 10 0 6 5 10 10 10 6
0 10 -4 10 -10z m-70 -20 c0 -11 -4 -20 -10 -20 -5 0 -10 9 -10 20 0 11 5 20
10 20 6 0 10 -9 10 -20z m-3030 -5 c0 -8 -4 -15 -9 -15 -5 0 -13 -10 -17 -22
-4 -13 -17 -45 -30 -72 -13 -28 -24 -59 -24 -70 0 -16 -3 -17 -12 -8 -10 10
-9 23 5 61 9 27 17 56 17 65 0 9 3 16 8 16 4 0 16 14 27 30 22 33 35 38 35 15z
m60 -20 c0 -14 -4 -25 -10 -25 -11 0 -14 33 -3 43 11 11 13 8 13 -18z m580 6
c0 -11 -4 -23 -10 -26 -6 -4 -10 5 -10 19 0 14 5 26 10 26 6 0 10 -9 10 -19z
m2490 -12 c0 -5 -4 -9 -10 -9 -5 0 -10 7 -10 16 0 8 5 12 10 9 6 -3 10 -10 10
-16z m-1716 -5 c3 -8 2 -12 -4 -9 -6 3 -10 10 -10 16 0 14 7 11 14 -7z m1443
-22 c-9 -10 -17 -24 -17 -30 0 -6 -10 -16 -21 -23 -24 -12 -24 -10 11 48 15
26 28 39 34 33 6 -6 3 -17 -7 -28z m-2321 -9 c-11 -11 -19 6 -11 24 8 17 8 17
12 0 3 -10 2 -21 -1 -24z m314 0 c-1 -28 -3 -34 -10 -22 -8 14 -3 59 6 59 2 0
4 -17 4 -37z m1550 7 c0 -11 7 -20 15 -20 8 0 15 -4 15 -10 0 -5 -7 -10 -15
-10 -8 0 -15 5 -15 10 0 6 -6 10 -14 10 -9 0 -12 7 -9 20 3 11 9 20 14 20 5 0
9 -9 9 -20z m658 -4 c3 -12 -1 -17 -10 -14 -7 3 -15 13 -16 22 -3 12 1 17 10
14 7 -3 15 -13 16 -22z m-3024 -11 c-4 -8 -8 -15 -10 -15 -2 0 -4 7 -4 15 0 8
4 15 10 15 5 0 7 -7 4 -15z m576 -2 c-1 -26 -39 -93 -40 -70 0 10 7 25 15 34
9 9 13 23 10 34 -4 11 -2 19 4 19 6 0 11 -8 11 -17z m1507 -28 c-4 -8 -11 -15
-17 -15 -6 0 -6 7 2 20 14 22 24 19 15 -5z m1030 3 c-3 -8 -6 -5 -6 6 -1 11 2
17 5 13 3 -3 4 -12 1 -19z m316 -68 c15 -19 33 -47 39 -62 7 -15 16 -28 20
-28 5 0 8 -5 8 -11 0 -6 6 -25 14 -42 28 -65 38 -143 26 -204 -13 -65 -33
-115 -54 -132 -18 -15 -26 13 -26 96 0 34 -4 65 -10 68 -5 3 -10 30 -10 58 -1
29 -7 63 -15 77 -8 14 -14 41 -15 61 0 19 -4 39 -9 45 -10 9 -29 75 -37 129
l-5 30 23 -26 c13 -14 35 -41 51 -59z m-2953 54 c0 -8 -5 -12 -10 -9 -6 4 -8
11 -5 16 9 14 15 11 15 -7z m2567 -16 c-3 -7 -5 -2 -5 12 0 14 2 19 5 13 2 -7
2 -19 0 -25z m-3067 -3 c0 -8 -4 -17 -10 -20 -6 -4 -10 5 -10 20 0 15 4 24 10
20 6 -3 10 -12 10 -20z m2480 -17 c0 -5 -7 -8 -15 -8 -8 0 -15 7 -15 15 0 8
-4 15 -10 15 -5 0 -10 5 -10 10 0 12 49 -21 50 -32z m-1610 11 c0 -18 -2 -19
-15 -9 -15 12 -12 30 6 30 5 0 9 -10 9 -21z m2300 -14 c0 -14 -4 -25 -10 -25
-11 0 -14 33 -3 43 11 11 13 8 13 -18z m-424 -4 c-20 -22 -61 -32 -90 -21 -17
6 -13 9 21 15 24 4 45 11 49 16 3 5 12 9 21 9 14 0 14 -2 -1 -19z m-2266 -11
c0 -11 -7 -20 -15 -20 -17 0 -18 2 -9 24 9 23 24 20 24 -4z m440 -35 c0 -3 -9
-1 -20 5 -11 6 -20 18 -20 27 0 14 3 13 20 -5 11 -12 20 -24 20 -27z m390 35
c0 -5 -7 -10 -16 -10 -8 0 -12 5 -9 10 3 6 10 10 16 10 5 0 9 -4 9 -10z m600
-22 c0 -5 -7 -8 -15 -8 -15 0 -20 21 -8 33 7 7 23 -11 23 -25z m200 7 c0 -3
-17 -5 -37 -5 -34 0 -35 1 -18 14 18 13 55 6 55 -9z m439 16 c11 -7 9 -10 -8
-16 -24 -7 -44 2 -36 16 8 11 26 11 44 0z m551 -9 c0 -15 -9 -17 -78 -14 -62
3 -81 1 -91 -12 -14 -17 -31 -21 -31 -8 0 14 59 33 113 35 31 1 59 6 63 10 13
12 24 8 24 -11z m-3134 -39 c-11 -11 -19 6 -11 24 8 17 8 17 12 0 3 -10 2 -21
-1 -24z m584 22 c0 -8 -4 -15 -10 -15 -5 0 -10 7 -10 15 0 8 5 15 10 15 6 0
10 -7 10 -15z m730 -5 c0 -5 -4 -10 -10 -10 -5 0 -10 5 -10 10 0 6 5 10 10 10
6 0 10 -4 10 -10z m1357 4 c-3 -3 -12 -4 -19 -1 -8 3 -5 6 6 6 11 1 17 -2 13
-5z m554 -41 c-9 -15 -10 -12 -10 17 0 29 1 32 10 18 7 -12 7 -24 0 -35z
m-2757 -21 c-10 -21 -19 -31 -22 -24 -2 8 4 29 14 48 24 45 31 24 8 -24z
m2926 43 c0 -8 -4 -15 -10 -15 -5 0 -10 7 -10 15 0 8 5 15 10 15 6 0 10 -7 10
-15z m-1200 1 c0 -2 -7 -9 -15 -16 -13 -11 -14 -10 -9 4 5 14 24 23 24 12z
m712 -38 c-14 -15 -22 -18 -22 -9 0 15 32 43 39 35 3 -3 -5 -14 -17 -26z
m-2929 -4 c-4 -10 -9 -12 -15 -6 -12 12 -1 35 12 27 5 -3 6 -13 3 -21z m597
-21 c0 -21 -28 -15 -35 7 -10 30 5 47 22 25 7 -11 13 -25 13 -32z m468 20 c5
-18 -23 -16 -39 3 -11 14 -10 15 11 12 13 -1 25 -9 28 -15z m202 7 c0 -28
-170 -55 -185 -29 -4 5 23 9 63 9 50 0 73 4 82 15 14 17 40 20 40 5z m820 -30
c0 -5 -4 -10 -10 -10 -5 0 -10 5 -10 10 0 6 5 10 10 10 6 0 10 -4 10 -10z
m730 -10 c0 -5 -4 -10 -10 -10 -5 0 -10 5 -10 10 0 6 5 10 10 10 6 0 10 -4 10
-10z m460 -32 c0 -49 -5 -47 -14 5 -4 23 -3 37 4 37 5 0 10 -19 10 -42z m157
-20 c-2 -13 -4 -3 -4 22 0 25 2 35 4 23 2 -13 2 -33 0 -45z m-2890 20 c-3 -7
-5 -2 -5 12 0 14 2 19 5 13 2 -7 2 -19 0 -25z m2353 18 c0 -24 -17 -28 -23 -6
-3 13 0 20 9 20 8 0 14 -6 14 -14z m-2920 -16 c0 -11 -4 -20 -10 -20 -5 0 -10
9 -10 20 0 11 5 20 10 20 6 0 10 -9 10 -20z m2050 10 c0 -5 -4 -10 -10 -10 -5
0 -10 5 -10 10 0 6 5 10 10 10 6 0 10 -4 10 -10z m-1570 -15 c0 -8 -4 -15 -10
-15 -5 0 -10 7 -10 15 0 8 5 15 10 15 6 0 10 -7 10 -15z m1835 5 c3 -5 1 -10
-4 -10 -6 0 -11 5 -11 10 0 6 2 10 4 10 3 0 8 -4 11 -10z m-1620 -20 c3 -5 1
-10 -4 -10 -6 0 -11 5 -11 10 0 6 2 10 4 10 3 0 8 -4 11 -10z m-285 -4 c0 -3
-4 -8 -10 -11 -5 -3 -10 -1 -10 4 0 6 5 11 10 11 6 0 10 -2 10 -4z m140 -16
c0 -11 -4 -20 -10 -20 -5 0 -10 9 -10 20 0 11 5 20 10 20 6 0 10 -9 10 -20z
m-571 3 c0 -5 -4 -17 -9 -28 -8 -18 -9 -17 -9 8 -1 15 4 27 9 27 6 0 10 -3 9
-7z m2388 -15 c-3 -8 -6 -5 -6 6 -1 11 2 17 5 13 3 -3 4 -12 1 -19z m-1917 -3
c0 -8 -4 -15 -9 -15 -13 0 -22 16 -14 24 11 11 23 6 23 -9z m2440 -76 c0 -62
-4 -89 -11 -87 -19 6 -12 178 7 178 2 0 4 -41 4 -91z m-760 61 c0 -5 -7 -10
-16 -10 -8 0 -12 5 -9 10 3 6 10 10 16 10 5 0 9 -4 9 -10z m125 0 c3 -5 -3
-10 -14 -10 -12 0 -21 5 -21 10 0 6 6 10 14 10 8 0 18 -4 21 -10z m-2231 -9
c3 -5 -1 -11 -9 -15 -9 -3 -15 0 -15 9 0 16 16 20 24 6z m396 -6 c12 -15 5
-39 -9 -30 -12 7 -21 45 -11 45 4 0 13 -7 20 -15z m97 -7 c-3 -8 -6 -5 -6 6
-1 11 2 17 5 13 3 -3 4 -12 1 -19z m1940 16 c-3 -3 -12 -4 -19 -1 -8 3 -5 6 6
6 11 1 17 -2 13 -5z m-1308 -13 c13 -1 21 -4 17 -8 -4 -5 -50 -8 -101 -8 -62
0 -98 -4 -106 -12 -7 -7 -22 -12 -33 -12 -17 1 -18 2 -3 6 9 2 17 9 17 14 0
21 54 26 209 20z m921 -1 c8 -5 11 -12 7 -16 -4 -4 -15 0 -24 9 -18 18 -8 23
17 7z m230 -12 c0 -13 -23 -5 -28 10 -2 7 2 10 12 6 9 -3 16 -11 16 -16z
m1186 -46 c-12 -11 -16 6 -9 39 l8 34 3 -33 c2 -19 1 -36 -2 -40z m-165 17
c-9 -23 -10 -22 -10 11 -1 23 2 31 9 24 7 -7 7 -19 1 -35z m-3372 24 c0 -5 -4
-17 -9 -28 -8 -18 -9 -17 -9 8 -1 15 4 27 9 27 6 0 10 -3 9 -7z m646 -3 c-3
-5 -10 -10 -16 -10 -5 0 -9 5 -9 10 0 6 7 10 16 10 8 0 12 -4 9 -10z m625 -8
c0 -14 -11 -21 -26 -15 -21 8 -17 23 6 23 11 0 20 -4 20 -8z m805 2 c13 -5 10
-10 -15 -25 -34 -21 -50 -24 -50 -9 0 6 9 10 21 10 15 0 19 5 15 15 -6 16 3
19 29 9z m390 -4 c3 -5 -3 -10 -15 -10 -12 0 -18 5 -15 10 3 6 10 10 15 10 5
0 12 -4 15 -10z m-1924 -43 c-8 -8 -11 -5 -11 9 0 27 14 41 18 19 2 -9 -1 -22
-7 -28z m809 33 c0 -5 -4 -10 -10 -10 -5 0 -10 5 -10 10 0 6 5 10 10 10 6 0
10 -4 10 -10z m1047 -1 c-14 -8 -22 -8 -30 0 -8 8 -3 11 19 11 25 -1 27 -2 11
-11z m143 -4 c0 -8 -4 -15 -10 -15 -5 0 -10 7 -10 15 0 8 5 15 10 15 6 0 10
-7 10 -15z m-260 -4 c0 -9 -70 -19 -89 -13 -28 9 -6 22 39 22 28 0 50 -4 50
-9z m1220 -6 c0 -8 -4 -15 -10 -15 -5 0 -10 7 -10 15 0 8 5 15 10 15 6 0 10
-7 10 -15z m-3050 -9 c0 -8 -7 -16 -15 -20 -8 -3 -15 -12 -15 -21 0 -8 -4 -15
-10 -15 -15 0 -12 17 6 45 18 28 34 33 34 11z m495 4 c-3 -5 -10 -10 -16 -10
-5 0 -9 5 -9 10 0 6 7 10 16 10 8 0 12 -4 9 -10z m384 -17 c17 -15 31 -34 31
-41 0 -14 -77 45 -79 61 -2 14 18 6 48 -20z m-1359 -17 c0 -14 -4 -28 -10 -31
-6 -4 -10 7 -10 24 0 17 5 31 10 31 6 0 10 -11 10 -24z m2030 9 c0 -8 -4 -15
-9 -15 -13 0 -22 16 -14 24 11 11 23 6 23 -9z m155 5 c-3 -5 -13 -10 -21 -10
-8 0 -14 5 -14 10 0 6 9 10 21 10 11 0 17 -4 14 -10z m182 -5 c40 -20 54 -49
17 -35 -28 11 -73 50 -57 50 5 0 24 -7 40 -15z m183 6 c0 -9 -44 -41 -56 -41
-4 0 3 11 16 25 24 26 40 32 40 16z m856 -39 c-3 -21 0 -42 7 -51 11 -14 10
-14 -5 -2 -21 15 -27 108 -7 95 7 -4 9 -21 5 -42z m-2478 18 c-7 -11 -16 -20
-20 -20 -5 0 -8 -7 -8 -15 0 -8 -4 -15 -10 -15 -16 0 -12 17 13 44 26 30 42
34 25 6z m2532 10 c0 -5 -7 -10 -16 -10 -8 0 -12 5 -9 10 3 6 10 10 16 10 5 0
9 -4 9 -10z m-1470 -14 c0 -10 -14 -14 -50 -14 -58 -1 -68 15 -12 21 20 2 43
4 50 5 6 1 12 -4 12 -12z m150 4 c0 -5 -8 -10 -17 -10 -15 0 -16 2 -3 10 19
12 20 12 20 0z m-2070 -15 c0 -8 -4 -15 -10 -15 -5 0 -10 7 -10 15 0 8 5 15
10 15 6 0 10 -7 10 -15z m510 -106 c0 -66 -4 -109 -10 -109 -6 0 -10 45 -10
116 0 74 4 113 10 109 6 -4 10 -53 10 -116z m1690 101 c0 -5 -5 -10 -11 -10
-5 0 -7 5 -4 10 3 6 8 10 11 10 2 0 4 -4 4 -10z m-1762 -454 c-13 -16 -80 26
-140 88 -32 32 -58 62 -58 66 0 4 7 13 15 20 8 7 15 18 15 24 0 6 11 23 24 37
13 14 27 35 30 47 4 12 12 22 17 22 5 0 9 7 9 15 0 8 4 15 10 15 5 0 12 11 16
25 3 14 10 25 15 25 5 0 9 5 9 11 0 5 8 21 18 33 16 23 17 16 22 -198 3 -121
2 -225 -2 -230z m1592 444 c0 -5 -7 -10 -16 -10 -8 0 -12 5 -9 10 3 6 10 10
16 10 5 0 9 -4 9 -10z m380 0 c0 -5 -11 -10 -25 -10 -14 0 -25 5 -25 10 0 6
11 10 25 10 14 0 25 -4 25 -10z m-2050 -14 c0 -8 -4 -18 -10 -21 -5 -3 -10 3
-10 14 0 12 5 21 10 21 6 0 10 -6 10 -14z m990 -19 c0 -5 -4 -5 -10 -2 -5 3
-10 14 -10 23 0 15 2 15 10 2 5 -8 10 -19 10 -23z m-1450 -9 c0 -36 -4 -35
-14 5 -4 16 -2 27 4 27 5 0 10 -14 10 -32z m1875 22 c3 -5 1 -10 -4 -10 -6 0
-11 5 -11 10 0 6 2 10 4 10 3 0 8 -4 11 -10z m1153 -31 l-5 -24 -10 25 c-12
28 -6 47 9 32 5 -5 8 -20 6 -33z m597 31 c3 -5 2 -10 -4 -10 -5 0 -13 5 -16
10 -3 6 -2 10 4 10 5 0 13 -4 16 -10z m-1535 -4 c0 -5 -65 -46 -74 -46 -16 0
-3 20 22 33 27 15 52 21 52 13z m-1190 -22 c0 -8 -4 -12 -10 -9 -5 3 -10 10
-10 16 0 5 5 9 10 9 6 0 10 -7 10 -16z m-479 -27 c-8 -8 -11 -7 -11 4 0 20 13
34 18 19 3 -7 -1 -17 -7 -23z m1499 23 c8 -5 12 -11 9 -14 -3 -3 -14 1 -25 9
-21 16 -8 20 16 5z m-446 -16 c4 -9 4 -19 2 -21 -8 -8 -26 8 -26 23 0 19 16
18 24 -2z m2156 -29 c0 -19 -4 -35 -10 -35 -5 0 -10 9 -10 19 0 11 -3 26 -6
35 -4 11 -1 16 10 16 12 0 16 -10 16 -35z m-1669 12 c-1 -4 -1 -16 -1 -27 0
-11 -4 -20 -8 -20 -5 0 -9 14 -9 30 0 17 4 29 9 28 5 -2 9 -7 9 -11z m-1981
-22 c0 -14 -4 -25 -10 -25 -11 0 -14 33 -3 43 11 11 13 8 13 -18z m417 -7 c-3
-7 -5 -2 -5 12 0 14 2 19 5 13 2 -7 2 -19 0 -25z m2653 17 c0 -8 -2 -15 -4
-15 -2 0 -6 7 -10 15 -3 8 -1 15 4 15 6 0 10 -7 10 -15z m-2174 -84 c-1 -88
-15 -141 -17 -65 -3 84 4 154 15 154 1 0 2 -40 2 -89z m2534 58 c0 -17 -4 -28
-10 -24 -5 3 -10 17 -10 31 0 13 5 24 10 24 6 0 10 -14 10 -31z m-330 -9 c0
-5 -4 -10 -10 -10 -5 0 -10 5 -10 10 0 6 5 10 10 10 6 0 10 -4 10 -10z m-3023
-17 c-9 -9 -20 -13 -24 -9 -4 4 -1 11 7 16 25 16 35 11 17 -7z m323 7 c0 -5
-5 -10 -11 -10 -5 0 -7 5 -4 10 3 6 8 10 11 10 2 0 4 -4 4 -10z m1120 -45 c0
-30 -4 -55 -10 -55 -5 0 -10 25 -10 55 0 30 5 55 10 55 6 0 10 -25 10 -55z
m2100 19 c0 -8 -4 -12 -10 -9 -5 3 -10 10 -10 16 0 5 5 9 10 9 6 0 10 -7 10
-16z m-3646 -27 c-7 -18 -24 -23 -24 -8 0 22 13 42 22 33 5 -5 6 -16 2 -25z
m3366 24 c0 -5 -6 -16 -13 -23 -7 -7 -17 -22 -22 -33 l-8 -20 -5 20 c-2 11 -9
26 -14 33 -8 9 -5 12 10 12 12 0 24 5 27 10 8 13 25 13 25 1z m-2970 -16 c0
-8 -4 -15 -10 -15 -5 0 -10 7 -10 15 0 8 5 15 10 15 6 0 10 -7 10 -15z m3039
3 c0 -7 -4 -22 -9 -33 -7 -17 -9 -15 -9 13 -1 17 4 32 9 32 6 0 10 -6 9 -12z
m-222 -4 c-3 -3 -12 -4 -19 -1 -8 3 -5 6 6 6 11 1 17 -2 13 -5z m413 -14 c0
-6 -7 -13 -15 -16 -8 -4 -15 -12 -15 -19 0 -6 -20 -34 -45 -61 -25 -27 -45
-42 -45 -34 0 8 21 37 45 63 25 26 45 54 45 62 0 8 7 15 15 15 8 0 15 -5 15
-10z m-3250 -18 c0 -14 -39 -46 -47 -39 -3 4 2 16 13 26 20 21 34 26 34 13z
m3030 -37 c0 -14 -4 -25 -10 -25 -11 0 -14 33 -3 43 11 11 13 8 13 -18z
m-3430 -15 c0 -20 4 -20 105 -14 76 5 105 4 105 -5 0 -6 -1 -11 -2 -12 -2 0
-43 -3 -92 -5 -112 -7 -136 -1 -136 31 0 14 5 25 10 25 6 0 10 -9 10 -20z
m3327 -2 c-3 -8 -6 -5 -6 6 -1 11 2 17 5 13 3 -3 4 -12 1 -19z m-2997 2 c-20
-13 -103 -13 -95 0 3 6 30 10 58 10 37 0 48 -3 37 -10z m1210 -27 c0 -19 -3
-24 -10 -17 -6 6 -8 18 -4 27 9 24 14 21 14 -10z m1860 -14 c0 -11 -4 -18 -10
-14 -5 3 -7 12 -3 20 7 21 13 19 13 -6z m45 11 c3 -5 1 -10 -4 -10 -6 0 -11 5
-11 10 0 6 2 10 4 10 3 0 8 -4 11 -10z m-2472 -15 c4 -8 2 -17 -3 -20 -6 -4
-10 3 -10 14 0 25 6 27 13 6z m2337 -10 c0 -8 -4 -15 -9 -15 -13 0 -22 16 -14
24 11 11 23 6 23 -9z m-2877 -59 c25 -24 52 -46 59 -49 18 -8 -19 -37 -47 -37
-12 0 -30 -7 -41 -15 -10 -8 -29 -15 -42 -15 -22 0 -28 -2 -90 -33 -63 -32
-68 -20 -16 37 19 22 54 66 76 98 23 32 44 58 49 58 4 0 28 -20 52 -44z m2847
30 c0 -8 -4 -18 -10 -21 -5 -3 -10 -4 -10 -1 0 2 -3 11 -6 20 -4 11 -1 16 10
16 9 0 16 -6 16 -14z m240 4 c0 -5 -5 -10 -11 -10 -5 0 -7 5 -4 10 3 6 8 10
11 10 2 0 4 -4 4 -10z m-2507 -25 c13 -19 15 -25 4 -25 -17 0 -37 20 -37 37 0
20 13 15 33 -12z m2417 0 c0 -28 12 -32 30 -10 7 8 19 15 28 15 10 0 3 -12
-19 -32 -29 -29 -36 -31 -46 -18 -15 18 -17 70 -3 70 6 0 10 -11 10 -25z
m-230 -2 c0 -7 -9 -13 -20 -13 -19 0 -26 11 -15 22 10 10 35 4 35 -9z m165
-20 c4 -16 10 -35 14 -43 5 -9 11 -29 15 -46 6 -28 3 -32 -56 -70 -70 -45
-236 -130 -242 -123 -2 2 22 33 55 68 32 35 59 67 59 71 0 4 11 20 25 36 14
16 42 53 62 82 41 58 60 65 68 25z m-111 -1 c6 -11 -43 -56 -52 -48 -4 4 1 13
11 20 9 7 17 18 17 25 0 13 16 15 24 3z m-2194 -33 c0 -6 -4 -7 -10 -4 -5 3
-10 11 -10 16 0 6 5 7 10 4 6 -3 10 -11 10 -16z m365 -8 c7 -12 -12 -24 -25
-16 -11 7 -4 25 10 25 5 0 11 -4 15 -9z m-270 -31 c4 -6 -5 -10 -19 -10 -14 0
-26 5 -26 10 0 6 9 10 19 10 11 0 23 -4 26 -10z m215 0 c0 -5 -10 -10 -22 -10
-19 0 -20 2 -8 10 19 13 30 13 30 0z m1810 -30 c-12 -12 -24 -19 -27 -16 -3 3
5 14 18 25 31 25 37 19 9 -9z m-2600 0 c0 -5 -9 -10 -21 -10 -11 0 -17 5 -14
10 3 6 13 10 21 10 8 0 14 -4 14 -10z m725 0 c-25 -11 -82 -11 -115 0 -17 5 0
8 55 8 53 0 73 -2 60 -8z m-699 -58 c-2 -20 -4 -50 -5 -66 -2 -47 -16 -19 -18
37 -3 59 2 81 16 72 6 -3 9 -22 7 -43z m2424 44 c0 -3 -4 -8 -10 -11 -5 -3
-10 -1 -10 4 0 6 5 11 10 11 6 0 10 -2 10 -4z m-2530 -10 c0 -2 -11 -6 -25 -8
-14 -3 -25 -1 -25 3 0 5 11 9 25 9 14 0 25 -2 25 -4z m2580 -16 c0 -5 -4 -10
-10 -10 -5 0 -10 5 -10 10 0 6 5 10 10 10 6 0 10 -4 10 -10z m70 6 c0 -3 -4
-8 -10 -11 -5 -3 -10 -1 -10 4 0 6 5 11 10 11 6 0 10 -2 10 -4z m-2737 -21 c1
-5 -11 -12 -27 -13 -27 -3 -28 -2 -16 13 14 17 40 17 43 0z m2691 -41 c-10
-15 -20 -21 -22 -15 -2 6 4 24 14 39 10 14 19 21 21 15 3 -7 -4 -24 -13 -39z
m-2768 17 c-7 -11 -46 -21 -46 -12 0 13 13 21 32 21 11 0 17 -4 14 -9z m-63
-32 c-8 -8 -16 -8 -30 0 -16 9 -14 10 12 11 21 0 26 -3 18 -11z m-63 -19 c0
-5 -9 -10 -20 -10 -10 0 -24 -9 -30 -20 -11 -21 -30 -27 -30 -10 0 6 8 19 18
29 18 20 62 28 62 11z m2856 -17 c-10 -10 -19 5 -10 18 6 11 8 11 12 0 2 -7 1
-15 -2 -18z m-16 -17 c0 -3 -4 -8 -10 -11 -5 -3 -10 -1 -10 4 0 6 5 11 10 11
6 0 10 -2 10 -4z m-30 -25 c0 -6 -4 -13 -10 -16 -5 -3 -10 1 -10 9 0 9 5 16
10 16 6 0 10 -4 10 -9z m-2900 -11 c0 -5 -5 -10 -11 -10 -5 0 -7 5 -4 10 3 6
8 10 11 10 2 0 4 -4 4 -10z m155 -19 c3 -5 1 -12 -5 -16 -5 -3 -10 1 -10 9 0
18 6 21 15 7z m-175 -11 c0 -5 -4 -10 -10 -10 -5 0 -10 5 -10 10 0 6 5 10 10
10 6 0 10 -4 10 -10z m-250 -32 c0 -7 -4 -19 -9 -26 -7 -11 -10 -10 -15 3 -10
26 -7 35 9 35 8 0 15 -6 15 -12z m220 2 c0 -5 -4 -10 -10 -10 -5 0 -10 -7 -10
-15 0 -8 -4 -15 -10 -15 -13 0 -13 6 2 30 14 21 28 26 28 10z m2973 -23 c-4
-22 -8 -25 -19 -16 -12 10 -12 14 3 29 22 22 22 21 16 -13z m-3263 -7 c0 -5
-2 -10 -4 -10 -3 0 -8 5 -11 10 -3 6 -1 10 4 10 6 0 11 -4 11 -10z m910 -5 c0
-8 -4 -15 -10 -15 -5 0 -7 7 -4 15 4 8 8 15 10 15 2 0 4 -7 4 -15z m-955 -31
c-22 -16 -40 -8 -25 11 6 8 19 11 27 8 14 -5 14 -8 -2 -19z m-55 -14 c0 -5 -4
-10 -10 -10 -5 0 -10 5 -10 10 0 6 5 10 10 10 6 0 10 -4 10 -10z m3390 -25 c0
-19 -4 -35 -9 -35 -12 0 -19 29 -13 53 7 30 22 18 22 -18z m-3088 -3 c-7 -2
-12 -10 -12 -17 0 -13 -29 -35 -45 -35 -3 0 9 18 27 40 18 21 35 34 37 28 2
-7 -1 -14 -7 -16z m2358 8 c0 -5 -5 -10 -11 -10 -5 0 -7 5 -4 10 3 6 8 10 11
10 2 0 4 -4 4 -10z m690 0 c0 -5 -2 -10 -4 -10 -3 0 -8 5 -11 10 -3 6 -1 10 4
10 6 0 11 -4 11 -10z m-3400 -10 c-19 -13 -30 -13 -30 0 0 6 10 10 23 10 18 0
19 -2 7 -10z m-53 -31 c-17 -10 -50 -1 -42 11 2 4 16 5 31 2 21 -4 23 -7 11
-13z m253 -4 c0 -8 -7 -15 -15 -15 -16 0 -20 12 -8 23 11 12 23 8 23 -8z
m-315 -15 c-3 -5 -13 -10 -21 -10 -8 0 -14 5 -14 10 0 6 9 10 21 10 11 0 17
-4 14 -10z m3536 -23 c-13 -13 -26 -3 -16 12 3 6 11 8 17 5 6 -4 6 -10 -1 -17z
m48 -64 c1 -24 -3 -43 -8 -43 -10 0 -18 75 -12 106 4 18 4 18 12 -1 4 -11 8
-39 8 -62z m-3654 57 c-3 -5 -10 -10 -16 -10 -5 0 -9 5 -9 10 0 6 7 10 16 10
8 0 12 -4 9 -10z m-60 -20 c3 -5 -3 -10 -14 -10 -12 0 -21 5 -21 10 0 6 6 10
14 10 8 0 18 -4 21 -10z m-70 -30 c-3 -5 -10 -10 -16 -10 -5 0 -9 5 -9 10 0 6
7 10 16 10 8 0 12 -4 9 -10z m388 -7 c-7 -2 -19 -2 -25 0 -7 3 -2 5 12 5 14 0
19 -2 13 -5z m1867 -24 c0 -5 -4 -9 -10 -9 -5 0 -10 7 -10 16 0 8 5 12 10 9 6
-3 10 -10 10 -16z m-2317 4 c-7 -2 -19 -2 -25 0 -7 3 -2 5 12 5 14 0 19 -2 13
-5z m2234 -25 c-3 -7 -5 -2 -5 12 0 14 2 19 5 13 2 -7 2 -19 0 -25z m843 17
c-7 -9 -15 -13 -17 -11 -7 7 7 26 19 26 6 0 6 -6 -2 -15z m-3142 -21 c-9 -9
-21 -13 -27 -10 -20 13 -11 26 16 26 25 0 26 -1 11 -16z m2412 -31 c0 -7 -4
-13 -10 -13 -5 0 -10 12 -10 28 0 21 2 24 10 12 5 -8 10 -21 10 -27z m-2480 7
c0 -5 -9 -10 -20 -10 -11 0 -20 5 -20 10 0 6 9 10 20 10 11 0 20 -4 20 -10z
m4000 -42 c0 -23 -2 -39 -5 -36 -10 10 -23 66 -17 72 14 15 22 3 22 -36z
m-4050 22 c0 -5 -14 -10 -31 -10 -17 0 -28 4 -24 10 3 6 17 10 31 10 13 0 24
-4 24 -10z m2450 -12 c0 -19 -2 -20 -10 -8 -13 19 -13 30 0 30 6 0 10 -10 10
-22z m100 -29 c0 -10 -4 -19 -10 -19 -5 0 -10 12 -10 26 0 14 4 23 10 19 6 -3
10 -15 10 -26z m-2635 11 c-3 -5 -13 -10 -21 -10 -8 0 -14 5 -14 10 0 6 9 10
21 10 11 0 17 -4 14 -10z m3280 -9 c3 -5 1 -12 -5 -16 -5 -3 -10 1 -10 9 0 18
6 21 15 7z m-3340 -22 c4 -6 5 -12 4 -14 -7 -7 -59 8 -59 16 0 13 47 11 55 -2z
m2625 -14 c0 -14 -4 -25 -10 -25 -5 0 -10 11 -10 25 0 14 5 25 10 25 6 0 10
-11 10 -25z m752 -7 c-6 -6 -16 -7 -23 -3 -9 6 -7 12 7 22 21 15 34 -1 16 -19z
m-3462 2 c0 -5 -9 -10 -20 -10 -11 0 -20 5 -20 10 0 6 9 10 20 10 11 0 20 -4
20 -10z m355 0 c3 -5 -1 -10 -10 -10 -9 0 -13 5 -10 10 3 6 8 10 10 10 2 0 7
-4 10 -10z m3182 -22 c-3 -7 -5 -2 -5 12 0 14 2 19 5 13 2 -7 2 -19 0 -25z
m771 -59 c3 -30 1 -49 -6 -49 -5 0 -12 24 -14 53 -2 28 -8 61 -12 72 -7 15 -4
15 9 -4 10 -13 20 -46 23 -72z m-1488 32 c7 -21 10 -45 7 -52 -3 -10 -7 -8
-12 6 -3 11 -11 28 -16 37 -11 22 -12 48 -1 48 5 0 15 -17 22 -39z m-2885 19
c-3 -5 -15 -10 -25 -10 -10 0 -22 5 -25 10 -4 6 7 10 25 10 18 0 29 -4 25 -10z
m2797 -32 c-9 -9 -12 -7 -12 12 0 19 3 21 12 12 9 -9 9 -15 0 -24z m708 17 c0
-8 0 -18 1 -22 0 -4 -4 -9 -10 -11 -6 -2 -11 8 -11 22 0 14 5 26 10 26 6 0 10
-7 10 -15z m-3591 -4 c9 -6 10 -10 2 -16 -16 -9 -44 2 -36 15 8 12 16 12 34 1z
m3501 -31 c0 -11 -4 -20 -10 -20 -5 0 -10 9 -10 20 0 11 5 20 10 20 6 0 10 -9
10 -20z m161 -25 c-9 -30 -9 -30 -10 10 -1 25 2 36 9 29 6 -6 6 -21 1 -39z
m729 25 c0 -11 -4 -20 -10 -20 -5 0 -10 9 -10 20 0 11 5 20 10 20 6 0 10 -9
10 -20z m-4440 0 c0 -5 -13 -10 -30 -10 -16 0 -30 5 -30 10 0 6 14 10 30 10
17 0 30 -4 30 -10z m-80 -30 c0 -12 -8 -12 -35 0 -18 8 -17 9 8 9 15 1 27 -3
27 -9z m3037 -22 c-3 -7 -5 -2 -5 12 0 14 2 19 5 13 2 -7 2 -19 0 -25z m663
-15 c0 -12 -4 -25 -10 -28 -6 -4 -10 11 -10 37 0 31 3 39 10 28 5 -8 10 -25
10 -37z m-705 27 c3 -5 1 -10 -4 -10 -6 0 -11 5 -11 10 0 6 2 10 4 10 3 0 8
-4 11 -10z m-3065 -9 c0 -10 -50 -25 -57 -17 -3 2 -2 9 2 15 8 13 55 15 55 2z
m3210 -37 c0 -8 -4 -14 -10 -14 -5 0 -10 9 -10 21 0 11 5 17 10 14 6 -3 10
-13 10 -21z m485 17 c3 -5 1 -12 -5 -16 -5 -3 -10 1 -10 9 0 18 6 21 15 7z
m143 -26 c-1 -22 3 -39 11 -44 7 -5 10 -14 6 -20 -5 -9 -10 -9 -21 0 -21 17
-18 99 3 99 3 0 3 -16 1 -35z m-3848 -17 c0 -5 -4 -8 -10 -8 -5 0 -10 10 -10
23 0 18 2 19 10 7 5 -8 10 -18 10 -22z m3142 0 c-9 -9 -12 -7 -12 12 0 19 3
21 12 12 9 -9 9 -15 0 -24z m1551 -110 c-6 -12 -43 -10 -43 2 0 6 7 10 16 10
13 0 15 10 14 53 -4 77 2 81 10 7 4 -36 6 -68 3 -72z m-2586 75 c-3 -21 -10
-58 -16 -83 -5 -25 -10 -73 -11 -107 0 -34 -4 -72 -10 -85 -9 -21 -17 -76 -40
-289 -8 -76 -31 -129 -55 -129 -7 0 -15 -5 -17 -12 -2 -6 -9 -8 -16 -5 -8 6
-7 20 3 55 8 26 15 68 15 94 0 26 5 59 12 75 6 15 15 53 19 83 18 123 28 173
38 183 6 6 11 22 11 35 0 24 25 111 41 144 5 10 9 31 9 48 0 16 5 30 11 30 7
0 9 -14 6 -37z m1641 -25 l-3 -23 -13 22 c-10 18 -10 27 0 43 l13 21 3 -21 c2
-11 2 -30 0 -42z m-511 10 c-3 -7 -5 -2 -5 12 0 14 2 19 5 13 2 -7 2 -19 0
-25z m-3220 -10 c-3 -7 -5 -2 -5 12 0 14 2 19 5 13 2 -7 2 -19 0 -25z m2408
22 c3 -5 1 -10 -4 -10 -6 0 -11 5 -11 10 0 6 2 10 4 10 3 0 8 -4 11 -10z m734
-54 c-9 -8 -10 -7 -5 7 3 10 7 26 7 35 1 9 4 6 6 -7 3 -13 -1 -28 -8 -35z
m-2949 40 c0 -2 -7 -6 -15 -10 -8 -3 -15 -1 -15 4 0 6 7 10 15 10 8 0 15 -2
15 -4z m3610 -42 c0 -21 -4 -33 -10 -29 -17 10 -11 65 7 65 2 0 3 -16 3 -36z
m-3778 -16 c-9 -9 -12 -7 -12 12 0 19 3 21 12 12 9 -9 9 -15 0 -24z m3234 16
c-3 -9 -6 -21 -6 -27 0 -8 -3 -8 -10 -1 -12 12 -3 44 12 44 6 0 7 -7 4 -16z
m-76 -45 c0 -17 -4 -28 -10 -24 -5 3 -10 17 -10 31 0 13 5 24 10 24 6 0 10
-14 10 -31z m520 -21 c0 -28 -3 -39 -10 -32 -9 9 -3 74 6 74 2 0 4 -19 4 -42z
m920 6 c0 -14 -4 -23 -10 -19 -5 3 -10 15 -10 26 0 10 5 19 10 19 6 0 10 -12
10 -26z m80 -31 c-1 -45 -2 -47 -16 -28 -8 11 -12 26 -9 33 3 8 5 20 5 28 0 8
5 14 10 14 6 0 10 -21 10 -47z m-1420 6 c0 -10 -4 -19 -10 -19 -5 0 -10 12
-10 26 0 14 4 23 10 19 6 -3 10 -15 10 -26z m491 -62 c-8 -8 -11 1 -11 29 0
53 14 67 18 19 2 -21 -1 -42 -7 -48z m-565 28 c-8 -23 -25 -9 -19 16 4 13 9
17 16 10 5 -5 7 -17 3 -26z m1390 -42 c-10 -25 -26 -2 -19 26 5 20 7 21 15 7
5 -10 7 -24 4 -33z m-1293 18 c2 -10 1 -25 -4 -32 -6 -10 -9 -4 -9 19 0 36 5
42 13 13z m1367 -28 c0 -16 -5 -35 -10 -43 -7 -11 -10 -4 -10 28 0 23 5 42 10
42 6 0 10 -12 10 -27z m-1441 -20 c0 -33 -1 -35 -9 -15 -8 20 -4 52 6 52 2 0
4 -17 3 -37z m442 -76 c-8 -8 -11 4 -11 39 0 66 14 80 18 19 2 -26 -2 -53 -7
-58z m174 93 c3 -5 1 -10 -4 -10 -6 0 -11 5 -11 10 0 6 2 10 4 10 3 0 8 -4 11
-10z m880 -48 l-8 -27 -8 28 c-4 16 -5 36 -2 44 10 26 26 -14 18 -45z m-1395
-14 c0 -25 -3 -29 -10 -18 -13 20 -13 50 0 50 6 0 10 -15 10 -32z m1240 7 c0
-14 -4 -25 -10 -25 -11 0 -14 33 -3 43 11 11 13 8 13 -18z m-750 0 c0 -8 -4
-15 -10 -15 -5 0 -10 7 -10 15 0 8 5 15 10 15 6 0 10 -7 10 -15z m-70 -34 c0
-22 -4 -43 -10 -46 -6 -4 -10 12 -10 39 0 25 5 46 10 46 6 0 10 -18 10 -39z
m-490 -1 c0 -10 -4 -21 -9 -24 -10 -7 -23 33 -15 46 8 13 24 -1 24 -22z m1280
-37 c0 -19 -3 -24 -10 -17 -6 6 -8 18 -4 27 9 24 14 21 14 -10z m-1180 -24 c0
-10 -4 -19 -10 -19 -5 0 -10 12 -10 26 0 14 4 23 10 19 6 -3 10 -15 10 -26z
m1390 -26 c0 -33 -3 -44 -11 -36 -9 9 -3 83 7 83 2 0 4 -21 4 -47z m-77 1 c-7
-19 -23 -7 -23 18 0 17 3 18 14 8 8 -6 12 -18 9 -26z m-1390 -20 c-6 -15 -7
-15 -15 5 -10 28 1 51 13 28 5 -8 6 -23 2 -33z m461 11 c-4 -8 -8 -15 -10 -15
-2 0 -4 7 -4 15 0 8 4 15 10 15 5 0 7 -7 4 -15z m776 -15 c0 -11 -4 -20 -10
-20 -5 0 -10 9 -10 20 0 11 5 20 10 20 6 0 10 -9 10 -20z m-1140 -31 c0 -24
-4 -38 -10 -34 -17 10 -11 75 7 75 2 0 3 -18 3 -41z m270 4 c-1 -24 -2 -26
-11 -10 -5 9 -7 22 -4 27 10 17 15 11 15 -17z m-341 -65 c0 -39 -3 -48 -9 -33
-12 28 -12 85 0 85 6 0 10 -24 9 -52z m1181 25 c0 -22 -2 -25 -10 -13 -13 20
-13 40 0 40 6 0 10 -12 10 -27z m-750 0 c0 -10 -7 -27 -15 -37 -16 -22 -20 -9
-9 32 7 26 24 30 24 5z m1040 -54 c0 -76 -17 -77 -22 -1 -5 62 -2 76 13 67 5
-4 9 -33 9 -66z m-1130 -149 c0 -127 -4 -200 -10 -200 -6 0 -10 71 -10 193 0
170 3 207 17 207 2 0 3 -90 3 -200z m820 153 c0 -10 -4 -25 -10 -33 -8 -12
-10 -12 -16 3 -7 20 1 47 16 47 5 0 10 -8 10 -17z m-1060 -43 c0 -27 -4 -50
-10 -50 -5 0 -10 23 -10 50 0 28 5 50 10 50 6 0 10 -22 10 -50z m-73 -95 c1
-53 -2 -93 -7 -89 -13 14 -18 195 -5 191 6 -2 11 -45 12 -102z m384 -21 c-3
-110 -2 -114 18 -114 24 0 27 -12 7 -29 -12 -10 -17 -8 -25 8 -12 22 -15 269
-4 257 4 -4 6 -59 4 -122z m717 78 c6 -18 -15 -14 -22 4 -4 10 -1 14 6 12 6
-2 14 -10 16 -16z m361 -39 l-1 -48 -9 35 c-4 19 -6 41 -4 48 9 25 15 10 14
-35z m-286 17 c-3 -11 -9 -17 -14 -14 -14 8 -10 34 5 34 9 0 12 -7 9 -20z
m-176 -6 c-3 -3 -12 -4 -19 -1 -8 3 -5 6 6 6 11 1 17 -2 13 -5z m69 -41 c-11
-11 -19 6 -11 24 8 17 8 17 12 0 3 -10 2 -21 -1 -24z m-979 -20 c-3 -10 -5 -4
-5 12 0 17 2 24 5 18 2 -7 2 -21 0 -30z m1058 -2 c-9 -16 -25 -3 -18 15 4 10
9 12 15 6 6 -6 7 -15 3 -21z m-108 -28 c-3 -10 -5 -4 -5 12 0 17 2 24 5 18 2
-7 2 -21 0 -30z m-1619 15 c-6 -18 -28 -21 -28 -4 0 9 7 16 16 16 9 0 14 -5
12 -12z m1693 -51 c-8 -8 -11 -5 -11 9 0 27 14 41 18 19 2 -9 -1 -22 -7 -28z
m379 -19 c0 -63 -20 -54 -26 11 -3 31 0 41 11 41 11 0 15 -13 15 -52z m-1395
-60 c-1 -34 -4 -65 -5 -68 -6 -12 -15 105 -11 138 7 61 20 5 16 -70z m925 82
c0 -11 -4 -20 -9 -20 -5 0 -7 9 -4 20 3 11 7 20 9 20 2 0 4 -9 4 -20z m70 -37
c0 -20 -3 -24 -11 -16 -7 7 -9 19 -6 27 10 24 17 19 17 -11z m-90 0 c0 -5 -5
-15 -10 -23 -8 -12 -10 -11 -10 8 0 12 5 22 10 22 6 0 10 -3 10 -7z m65 -43
c3 -5 1 -10 -4 -10 -6 0 -11 5 -11 10 0 6 2 10 4 10 3 0 8 -4 11 -10z m-1065
-15 c0 -8 -2 -15 -4 -15 -2 0 -6 7 -10 15 -3 8 -1 15 4 15 6 0 10 -7 10 -15z
m970 1 c0 -8 -7 -16 -15 -20 -8 -3 -15 -12 -15 -21 0 -8 -4 -15 -10 -15 -13 0
-13 1 6 38 16 33 34 42 34 18z m550 -29 c0 -12 -5 -29 -10 -37 -7 -11 -10 -3
-10 28 0 26 4 41 10 37 6 -3 10 -16 10 -28z m-480 -1 c0 -8 -4 -18 -10 -21 -5
-3 -10 3 -10 14 0 12 5 21 10 21 6 0 10 -6 10 -14z m-1640 -11 c17 -21 5 -31
-15 -12 -8 9 -15 18 -15 21 0 11 18 6 30 -9z m1010 -45 c0 -27 -4 -50 -10 -50
-5 0 -10 23 -10 50 0 28 5 50 10 50 6 0 10 -22 10 -50z m-410 -34 c0 -58 -12
-76 -50 -75 l-25 1 28 10 c25 9 27 13 27 69 0 38 4 58 10 54 6 -3 10 -30 10
-59z m770 54 c0 -5 -4 -10 -10 -10 -5 0 -10 5 -10 10 0 6 5 10 10 10 6 0 10
-4 10 -10z m236 -17 c-10 -10 -19 5 -10 18 6 11 8 11 12 0 2 -7 1 -15 -2 -18z
m-1546 -36 c0 -6 -9 -2 -20 8 -11 10 -20 23 -20 28 0 6 9 2 20 -8 11 -10 20
-23 20 -28z m1460 33 c0 -5 -4 -10 -10 -10 -5 0 -10 5 -10 10 0 6 5 10 10 10
6 0 10 -4 10 -10z m-1576 -21 c-3 -5 -10 -7 -15 -3 -5 3 -7 10 -3 15 3 5 10 7
15 3 5 -3 7 -10 3 -15z m996 -19 c0 -10 -4 -22 -10 -25 -6 -4 -10 7 -10 25 0
18 4 29 10 25 6 -3 10 -15 10 -25z m642 -2 c-9 -9 -12 -7 -12 12 0 19 3 21 12
12 9 -9 9 -15 0 -24z m-92 12 c0 -5 -4 -10 -10 -10 -5 0 -10 5 -10 10 0 6 5
10 10 10 6 0 10 -4 10 -10z m649 -32 l-2 -43 -6 35 c-7 33 -5 50 5 50 2 0 3
-19 3 -42z m-2169 22 c0 -5 -4 -10 -10 -10 -5 0 -10 5 -10 10 0 6 5 10 10 10
6 0 10 -4 10 -10z m1395 1 c3 -5 1 -12 -4 -15 -5 -3 -11 1 -15 9 -6 16 9 21
19 6z m72 3 c-3 -3 -12 -4 -19 -1 -8 3 -5 6 6 6 11 1 17 -2 13 -5z m-765 -81
c-2 -18 -8 -33 -13 -33 -11 0 -12 94 -2 104 11 11 19 -31 15 -71z m785 45 c-3
-8 -6 -5 -6 6 -1 11 2 17 5 13 3 -3 4 -12 1 -19z m103 12 c0 -17 -39 -54 -47
-46 -5 4 0 13 10 20 9 7 17 18 17 25 0 6 5 11 10 11 6 0 10 -5 10 -10z m-1538
-30 c17 -17 27 -34 24 -38 -7 -6 -66 50 -66 62 0 12 13 5 42 -24z m1018 -25
c0 -14 3 -25 8 -25 10 0 35 -41 28 -47 -7 -7 -36 23 -36 36 0 6 -4 11 -10 11
-5 0 -10 11 -10 25 0 14 5 25 10 25 6 0 10 -11 10 -25z m395 15 c3 -5 1 -10
-4 -10 -6 0 -11 5 -11 10 0 6 2 10 4 10 3 0 8 -4 11 -10z m-1295 -10 c0 -5 -2
-10 -4 -10 -3 0 -8 5 -11 10 -3 6 -1 10 4 10 6 0 11 -4 11 -10z m34 -14 c-3
-9 -10 -16 -15 -16 -5 0 -4 9 3 20 14 22 21 20 12 -4z m246 14 c0 -5 15 -10
34 -10 19 0 38 -4 41 -10 12 -20 -61 -11 -80 10 -10 11 -13 20 -7 20 7 0 12
-4 12 -10z m990 -16 c0 -3 -18 -23 -40 -45 l-40 -40 -30 31 c-30 30 -21 43 10
15 22 -20 53 -9 45 15 -6 18 -3 20 48 29 4 0 7 -2 7 -5z m71 -44 c-15 -10 -20
-22 -15 -33 4 -11 1 -17 -9 -17 -28 0 -27 17 3 51 16 19 30 39 31 44 1 6 4 1
6 -9 3 -12 -3 -25 -16 -36z m-521 25 c0 -8 -2 -15 -4 -15 -2 0 -6 7 -10 15 -3
8 -1 15 4 15 6 0 10 -7 10 -15z m265 -4 c-3 -6 -14 -10 -23 -10 -15 1 -15 2 1
6 9 2 17 9 17 15 0 6 3 9 6 5 3 -3 3 -10 -1 -16z m-1138 -6 c8 -8 13 -20 11
-26 -2 -5 -14 1 -27 15 -26 27 -11 37 16 11z m2083 -21 c0 -21 -4 -33 -10 -29
-5 3 -10 19 -10 36 0 16 5 29 10 29 6 0 10 -16 10 -36z m-1970 17 c0 -5 10
-12 23 -16 18 -6 19 -8 5 -12 -10 -2 -27 5 -40 16 -18 18 -19 21 -5 21 9 0 17
-4 17 -9z m190 -16 c0 -16 -35 -21 -44 -6 -8 12 4 21 26 21 10 0 18 -7 18 -15z
m180 -11 c0 -17 -22 -14 -28 4 -2 7 3 12 12 12 9 0 16 -7 16 -16z m672 -16
c-9 -9 -12 -7 -12 12 0 19 3 21 12 12 9 -9 9 -15 0 -24z m-252 7 c0 -8 -2 -15
-4 -15 -2 0 -6 7 -10 15 -3 8 -1 15 4 15 6 0 10 -7 10 -15z m-848 -15 c12 -11
18 -20 12 -20 -11 1 -44 25 -44 34 0 11 10 7 32 -14z m148 11 c0 -14 -18 -23
-30 -16 -6 4 -8 11 -5 16 8 12 35 12 35 0z m174 -17 c18 -7 12 -24 -10 -24 -8
0 -14 7 -14 15 0 17 2 18 24 9z m556 -9 c0 -8 -4 -15 -10 -15 -5 0 -10 7 -10
15 0 8 5 15 10 15 6 0 10 -7 10 -15z m-493 -1 c-3 -3 -12 -4 -19 -1 -8 3 -5 6
6 6 11 1 17 -2 13 -5z m-322 -30 c9 -9 14 -18 11 -21 -6 -6 -46 20 -46 29 0
13 18 9 35 -8z m171 6 c27 0 14 -18 -16 -22 -25 -4 -30 -1 -30 15 0 13 5 17
16 13 9 -3 22 -6 30 -6z m554 0 c0 -5 -4 -10 -9 -10 -6 0 -13 5 -16 10 -3 6 1
10 9 10 9 0 16 -4 16 -10z m190 -11 c0 -11 -4 -17 -10 -14 -5 3 -10 13 -10 21
0 8 5 14 10 14 6 0 10 -9 10 -21z m80 -4 c0 -8 -7 -15 -15 -15 -13 0 -14 3 -3
15 16 18 18 18 18 0z m104 -16 c-10 -16 -24 -9 -24 12 0 18 2 19 15 9 8 -7 12
-16 9 -21z m216 10 c0 -6 -4 -7 -10 -4 -5 3 -10 11 -10 16 0 6 5 7 10 4 6 -3
10 -11 10 -16z m675 -1 c7 -30 3 -68 -7 -68 -4 0 -8 10 -8 23 0 12 -3 32 -6
45 -4 13 -2 22 5 22 6 0 13 -10 16 -22z m-1150 2 c3 -5 -1 -10 -9 -10 -8 0
-18 5 -21 10 -3 6 1 10 9 10 8 0 18 -4 21 -10z m-775 -10 c0 -5 -6 -10 -14
-10 -8 0 -18 5 -21 10 -3 6 3 10 14 10 12 0 21 -4 21 -10z m992 -32 c-9 -9
-15 -9 -24 0 -9 9 -7 12 12 12 19 0 21 -3 12 -12z m958 -89 c0 -24 -4 -38 -10
-34 -17 10 -11 75 7 75 2 0 3 -18 3 -41z m-1125 -129 c-3 -5 -10 -10 -16 -10
-5 0 -9 5 -9 10 0 6 7 10 16 10 8 0 12 -4 9 -10z m259 -36 c9 -3 16 -13 16
-21 0 -21 -44 -12 -48 10 -4 18 6 21 32 11z m483 -70 c-3 -3 -12 -4 -19 -1 -8
3 -5 6 6 6 11 1 17 -2 13 -5z"/>
</g>
</svg>
